<mxfile host="app.diagrams.net" modified="2023-11-22T13:26:35.921Z" agent="Mozilla/5.0 (Linux; Android 10; K) AppleWebKit/537.36 (KHTML, like Gecko) Chrome/119.0.0.0 Mobile Safari/537.36 EdgA/119.0.0.0" etag="7kxS3RIj_OG54hbuS5iE" version="22.1.3" type="github">
  <diagram name="第 1 页" id="hZ_Ys6aM_7410wJPslLY">
    <mxGraphModel dx="359" dy="1016" grid="0" gridSize="10" guides="1" tooltips="1" connect="1" arrows="1" fold="1" page="0" pageScale="1" pageWidth="827" pageHeight="1169" math="0" shadow="0">
      <root>
        <mxCell id="0" />
        <mxCell id="1" parent="0" />
        <mxCell id="rfNkvmtyaerZlIBuDHLV-3" value="" style="edgeStyle=none;curved=1;rounded=0;orthogonalLoop=1;jettySize=auto;html=1;fontSize=12;startSize=8;endSize=8;" edge="1" parent="1" source="rfNkvmtyaerZlIBuDHLV-1" target="rfNkvmtyaerZlIBuDHLV-2">
          <mxGeometry relative="1" as="geometry" />
        </mxCell>
        <mxCell id="rfNkvmtyaerZlIBuDHLV-1" value="介绍游戏规则 释放玩家进入区域熟悉地图" style="whiteSpace=wrap;html=1;fontSize=16;" vertex="1" parent="1">
          <mxGeometry x="142" y="-26" width="120" height="60" as="geometry" />
        </mxCell>
        <mxCell id="rfNkvmtyaerZlIBuDHLV-5" value="" style="edgeStyle=none;curved=1;rounded=0;orthogonalLoop=1;jettySize=auto;html=1;fontSize=12;startSize=8;endSize=8;" edge="1" parent="1" source="rfNkvmtyaerZlIBuDHLV-2" target="rfNkvmtyaerZlIBuDHLV-4">
          <mxGeometry relative="1" as="geometry" />
        </mxCell>
        <mxCell id="rfNkvmtyaerZlIBuDHLV-2" value="才用1v1车轮战形式 降两支队伍传送到选择区域" style="whiteSpace=wrap;html=1;fontSize=16;" vertex="1" parent="1">
          <mxGeometry x="142" y="74" width="120" height="60" as="geometry" />
        </mxCell>
        <mxCell id="rfNkvmtyaerZlIBuDHLV-4" value="" style="whiteSpace=wrap;html=1;fontSize=16;" vertex="1" parent="1">
          <mxGeometry x="145" y="187" width="120" height="60" as="geometry" />
        </mxCell>
      </root>
    </mxGraphModel>
  </diagram>
</mxfile>
